<svg width="33" height="32" viewBox="0 0 33 32" fill="none" xmlns="http://www.w3.org/2000/svg">
<path d="M29.5667 3C27.6121 1.07743 24.9802 0 22.2386 0H11.3459C8.34023 0 5.43133 1.06261 3.13337 3C1.20271 4.5825 0.0833664 6.94732 0.0833664 9.44367V22.5563C0.0833664 25.0527 1.20271 27.4175 3.13337 29C5.43133 30.9374 8.34024 32 11.3459 32H22.2386C24.9802 32 27.6121 30.9226 29.5667 29C31.4974 27.4175 32.6167 25.0527 32.6167 22.5563V9.44366C32.6167 6.94732 31.4974 4.5825 29.5667 3Z" fill="white"/>
<path d="M22.7132 10.1634C22.1879 8.92995 21.3036 7.87669 20.1715 7.13595C19.0394 6.3952 17.7098 6 16.35 6C14.9902 6 13.6607 6.3952 12.5285 7.13595C11.3964 7.87669 10.5121 8.92995 9.98678 10.1634C8.8523 10.6733 7.8907 11.493 7.21641 12.525C6.54212 13.557 6.18355 14.7577 6.18337 15.9844C6.17429 19.3943 9.08813 22.3401 12.5502 22.4294C13.6151 22.4547 14.6702 22.2239 15.6238 21.7572V25.2859C15.6238 25.4753 15.7003 25.6569 15.8365 25.7908C15.9727 25.9248 16.1574 26 16.35 26C16.5426 26 16.7273 25.9248 16.8635 25.7908C16.9997 25.6569 17.0762 25.4753 17.0762 25.2859V21.7572C17.979 22.198 18.973 22.428 19.981 22.4294H20.1462C23.6119 22.3401 26.5266 19.3943 26.5167 15.9844C26.5165 14.7577 26.1579 13.557 25.4836 12.525C24.8093 11.493 23.8477 10.6733 22.7132 10.1634ZM20.1126 21.0011C19.0297 21.0289 17.966 20.7161 17.0762 20.1085V16.4486L21.0321 14.5044C21.1175 14.4624 21.1936 14.4043 21.2561 14.3334C21.3186 14.2625 21.3663 14.1802 21.3965 14.0912C21.4267 14.0022 21.4387 13.9082 21.432 13.8146C21.4252 13.721 21.3998 13.6296 21.3571 13.5457C21.3144 13.4617 21.2553 13.3869 21.1833 13.3254C21.1112 13.2639 21.0275 13.217 20.9369 13.1873C20.8464 13.1576 20.7508 13.1458 20.6556 13.1524C20.5604 13.1591 20.4675 13.1841 20.3822 13.2261L17.0762 14.8471V12.4316C17.0762 12.2422 16.9997 12.0606 16.8635 11.9267C16.7273 11.7927 16.5426 11.7175 16.35 11.7175C16.1574 11.7175 15.9727 11.7927 15.8365 11.9267C15.7003 12.0606 15.6238 12.2422 15.6238 12.4316V16.9895L12.3179 15.3631C12.1455 15.2783 11.9459 15.2644 11.7631 15.3243C11.5803 15.3843 11.4291 15.5132 11.3429 15.6827C11.2568 15.8522 11.2426 16.0484 11.3035 16.2282C11.3645 16.408 11.4955 16.5566 11.6679 16.6414L15.6238 18.5856V20.1031C14.7343 20.7112 13.6704 21.024 12.5874 20.9958C9.89601 20.9324 7.62849 18.6374 7.63575 15.988C7.63506 14.9916 7.93843 14.0179 8.50662 13.1929C9.07481 12.3679 9.88167 11.7295 10.8228 11.3604C10.9172 11.3232 11.0026 11.2668 11.0735 11.195C11.1443 11.1231 11.199 11.0375 11.234 10.9436C11.6171 9.912 12.3133 9.02116 13.2284 8.39174C14.1435 7.76232 15.2333 7.42474 16.35 7.42474C17.4668 7.42474 18.5565 7.76232 19.4716 8.39174C20.3867 9.02116 21.083 9.912 21.466 10.9436C21.501 11.0375 21.5557 11.1231 21.6266 11.195C21.6974 11.2668 21.7828 11.3232 21.8772 11.3604C22.8182 11.7298 23.6249 12.3681 24.1931 13.1931C24.7613 14.018 25.0647 14.9916 25.0643 15.988C25.0715 18.6374 22.804 20.9324 20.1126 21.0011Z" fill="#F15C4C"/>
</svg>
