<svg width="34" height="32" viewBox="0 0 34 32" fill="none" xmlns="http://www.w3.org/2000/svg">
<path d="M30.4 3C28.4453 1.07743 25.8135 0 23.0718 0H12.1792C9.17348 0 6.26458 1.06261 3.96662 3C2.03596 4.5825 0.916618 6.94732 0.916618 9.44367V22.5563C0.916618 25.0527 2.03596 27.4175 3.96662 29C6.26458 30.9374 9.17349 32 12.1792 32H23.0718C25.8135 32 28.4453 30.9226 30.4 29C32.3306 27.4175 33.45 25.0527 33.45 22.5563V9.44366C33.45 6.94732 32.3306 4.5825 30.4 3Z" fill="white"/>
<path d="M17.232 25L9.67939 20.9624V14.9624L6 13L17.232 7L28.464 13V20.9055H27.2052V13.6958L24.7846 14.9624V20.9624L17.232 25ZM17.232 17.5811L25.8294 13L17.232 8.4189L8.63461 13L17.232 17.5811ZM17.232 23.5885L23.5259 20.2456V15.6434L17.232 18.9963L10.9382 15.6434V20.2456L17.232 23.5885Z" fill="#F15C4C"/>
</svg>
