<svg width="34" height="32" viewBox="0 0 34 32" fill="none" xmlns="http://www.w3.org/2000/svg">
<path d="M30.4 3C28.4453 1.07743 25.8135 0 23.0718 0H12.1792C9.17348 0 6.26458 1.06261 3.96662 3C2.03596 4.5825 0.916618 6.94732 0.916618 9.44367V22.5563C0.916618 25.0527 2.03596 27.4175 3.96662 29C6.26458 30.9374 9.17349 32 12.1792 32H23.0718C25.8135 32 28.4453 30.9226 30.4 29C32.3306 27.4175 33.45 25.0527 33.45 22.5563V9.44366C33.45 6.94732 32.3306 4.5825 30.4 3Z" fill="white"/>
<path d="M26.3332 12.496H24.8896L21.1157 6L19.3508 6.992L22.5482 12.496H11.8183L15.0167 6.992L13.2508 6L9.47689 12.496H8.03322C7.87696 12.4962 7.72283 12.5317 7.58279 12.5999C7.44275 12.6681 7.32056 12.7671 7.22569 12.8893C7.13081 13.0114 7.06581 13.1534 7.03572 13.3042C7.00562 13.455 7.01124 13.6107 7.05214 13.759L9.89779 24.023C10.0161 24.4458 10.272 24.8188 10.6264 25.0848C10.9808 25.3509 11.4141 25.4953 11.86 25.496H22.5075C23.4205 25.496 24.2277 24.891 24.4697 24.021L27.3153 13.758C27.3567 13.6096 27.3626 13.4538 27.3327 13.3028C27.3027 13.1517 27.2376 13.0096 27.1425 12.8874C27.0474 12.7652 26.9249 12.6663 26.7845 12.5984C26.6441 12.5305 26.4897 12.4955 26.3332 12.496ZM22.5065 23.496H11.86L9.36506 14.496H25.0014L22.5065 23.496Z" fill="#F15C4C"/>
<path d="M14.1332 16.496H16.1666V21.496H14.1332V16.496ZM18.1999 16.496H20.2332V21.496H18.1999V16.496Z" fill="#F15C4C"/>
</svg>
