<svg width="33" height="32" viewBox="0 0 33 32" fill="none" xmlns="http://www.w3.org/2000/svg">
<path d="M29.6833 3C27.7287 1.07743 25.0968 0 22.3551 0H11.4625C8.45681 0 5.54791 1.06261 3.24994 3C1.31929 4.5825 0.199944 6.94732 0.199944 9.44367V22.5563C0.199944 25.0527 1.31929 27.4175 3.24994 29C5.54791 30.9374 8.45681 32 11.4625 32H22.3551C25.0968 32 27.7287 30.9226 29.6833 29C31.6139 27.4175 32.7333 25.0527 32.7333 22.5563V9.44366C32.7333 6.94732 31.6139 4.5825 29.6833 3Z" fill="white"/>
<path d="M17.7606 25L16.4667 23.7273L19.7477 20.5L11.8917 12.7727L8.61059 16L7.31665 14.7273L8.61059 13.4091L7.31665 12.1364L9.25756 10.2273L7.96362 8.90909L9.25756 7.63636L10.5977 8.90909L12.5386 7L13.8326 8.27273L15.1727 7L16.4667 8.27273L13.1856 11.5L21.0417 19.2273L24.3227 16L25.6166 17.2727L24.3227 18.5909L25.6166 19.8636L23.6757 21.7727L24.9697 23.0909L23.6757 24.3636L22.3356 23.0909L20.3947 25L19.1007 23.7273L17.7606 25Z" fill="#F15C4C"/>
</svg>
