<svg width="34" height="32" viewBox="0 0 34 32" fill="none" xmlns="http://www.w3.org/2000/svg">
<path d="M30.35 3C28.3954 1.07743 25.7636 0 23.0219 0H12.1292C9.12356 0 6.21465 1.06261 3.91669 3C1.98604 4.5825 0.866692 6.94732 0.866692 9.44367V22.5563C0.866692 25.0527 1.98604 27.4175 3.91669 29C6.21465 30.9374 9.12356 32 12.1292 32H23.0219C25.7636 32 28.3954 30.9226 30.35 29C32.2807 27.4175 33.4 25.0527 33.4 22.5563V9.44366C33.4 6.94732 32.2807 4.5825 30.35 3Z" fill="#F15C4C"/>
<path d="M8.4917 21.5C14.2528 26.1667 20.0139 26.1667 25.775 21.5" stroke="white" stroke-width="1.2" stroke-linecap="round" stroke-linejoin="round"/>
<path d="M24.2501 22.5L22.2167 14L23.2334 12L25.2667 13L26.7917 11.5L24.2501 7C19.1139 7.218 18.1602 10.133 17.1334 13H11.0334C10.2245 13 9.44871 13.3161 8.87672 13.8787C8.30474 14.4413 7.9834 15.2044 7.9834 16M10.0167 22.5L12.0501 13" stroke="white" stroke-width="1.2" stroke-linecap="round" stroke-linejoin="round"/>
<path d="M13.0667 23.9998L15.1 18.9998H19.1667L21.2 23.9998" stroke="white" stroke-width="1.2" stroke-linecap="round" stroke-linejoin="round"/>
</svg>
