<svg width="20" height="20" viewBox="0 0 20 20" fill="none" xmlns="http://www.w3.org/2000/svg">
<path d="M7.73738 1.40063C7.40472 1.14102 6.99483 1.00001 6.57286 1H4.03571C3.23059 1 2.45845 1.31983 1.88914 1.88914C1.31983 2.45845 1 3.23059 1 4.03571V6.32143C1 13.0476 6.45236 18.5 13.1786 18.5H15.4643C16.2694 18.5 17.0416 18.1802 17.6109 17.6109C18.1802 17.0416 18.5 16.2694 18.5 15.4643V13.8849C18.4998 13.5334 18.4018 13.1886 18.2169 12.8897C18.0321 12.5909 17.7677 12.3494 17.4534 12.1923L14.6924 10.8118C14.4498 10.6905 14.184 10.6227 13.913 10.613C13.642 10.6034 13.3721 10.6521 13.1215 10.7558C12.8709 10.8596 12.6456 11.0159 12.4607 11.2144C12.2758 11.4128 12.1356 11.6492 12.0498 11.9065L11.7103 12.927C11.6615 13.0732 11.5611 13.1965 11.4278 13.2738C11.2944 13.3513 11.1373 13.3773 10.9861 13.3471C9.7936 13.1084 8.69837 12.5221 7.83849 11.662C6.97858 10.8019 6.39248 9.70655 6.15404 8.51392C6.12382 8.36267 6.14987 8.20559 6.22731 8.0722C6.30474 7.93881 6.42865 7.83814 6.57498 7.78938L7.84104 7.3666C8.29299 7.21585 8.67146 6.90021 8.90093 6.48268C9.13039 6.06515 9.19377 5.57566 9.07877 5.11331L8.40895 2.43289C8.30641 2.02357 8.07004 1.66024 7.73738 1.40063Z" stroke="#F15C4C" stroke-width="1.5"/>
</svg>
